HIERARCHY
ROOT RootJoint
{
    OFFSET   0.000000   0.000000   0.000000
    CHANNELS 6 Xposition Yposition Zposition Xrotation Yrotation Zrotation
    JOINT pelvis_lowerback
    {
        OFFSET   0.000000   0.093605   0.000000
        CHANNELS 3 Xrotation Yrotation Zrotation
        JOINT lowerback_torso
        {
            OFFSET   0.000000   0.100000   0.000000
            CHANNELS 3 Xrotation Yrotation Zrotation
            JOINT torso_head
            {
                OFFSET   0.000000   0.282350   0.000000
                CHANNELS 3 Xrotation Yrotation Zrotation
                End Site
                {
                    OFFSET   0.000000   0.192650   0.000000
                }
            }
            JOINT rTorso_Clavicle
            {
                OFFSET  -0.001000   0.157500   0.000000
                CHANNELS 3 Xrotation Yrotation Zrotation
                JOINT rShoulder
                {
                    OFFSET  -0.117647   0.000000   0.000000
                    CHANNELS 3 Xrotation Yrotation Zrotation
                    JOINT rElbow
                    {
                        OFFSET  -0.245000   0.000000   0.000000
                        CHANNELS 3 Xrotation Yrotation Zrotation
                        JOINT rWrist
                        {
                            OFFSET  -0.240000   0.000000   0.000000
                            CHANNELS 3 Xrotation Yrotation Zrotation
                            End Site
                            {
                                OFFSET  -0.116353  -0.002500   0.000000
                            }
                        }
                    }
                }
            }
            JOINT lTorso_Clavicle
            {
                OFFSET   0.001000   0.157500   0.000000
                CHANNELS 3 Xrotation Yrotation Zrotation
                JOINT lShoulder
                {
                    OFFSET   0.117647   0.000000   0.000000
                    CHANNELS 3 Xrotation Yrotation Zrotation
                    JOINT lElbow
                    {
                        OFFSET   0.245000   0.000000   0.000000
                        CHANNELS 3 Xrotation Yrotation Zrotation
                        JOINT lWrist
                        {
                            OFFSET   0.240000   0.000000   0.000000
                            CHANNELS 3 Xrotation Yrotation Zrotation
                            End Site
                            {
                                OFFSET   0.116353  -0.002500   0.000000
                            }
                        }
                    }
                }
            }
        }
    }
    JOINT rHip
    {
        OFFSET  -0.100000  -0.051395   0.000000
        CHANNELS 3 Xrotation Yrotation Zrotation
        JOINT rKnee
        {
            OFFSET   0.000000  -0.410000   0.000000
            CHANNELS 3 Xrotation Yrotation Zrotation
            JOINT rAnkle
            {
                OFFSET   0.000000  -0.390000   0.000000
                CHANNELS 3 Xrotation Yrotation Zrotation
                JOINT rToeJoint
                {
                    OFFSET   0.000000  -0.050000   0.130000
                    CHANNELS 3 Xrotation Yrotation Zrotation
                    End Site
                    {
                        OFFSET  -0.010000   0.002000   0.060000
                    }
                }
            }
        }
    }
    JOINT lHip
    {
        OFFSET   0.100000  -0.051395   0.000000
        CHANNELS 3 Xrotation Yrotation Zrotation
        JOINT lKnee
        {
            OFFSET   0.000000  -0.410000   0.000000
            CHANNELS 3 Xrotation Yrotation Zrotation
            JOINT lAnkle
            {
                OFFSET   0.000000  -0.390000   0.000000
                CHANNELS 3 Xrotation Yrotation Zrotation
                JOINT lToeJoint
                {
                    OFFSET   0.000000  -0.050000   0.130000
                    CHANNELS 3 Xrotation Yrotation Zrotation
                    End Site
                    {
                        OFFSET   0.010000   0.002000   0.060000
                    }
                }
            }
        }
    }
}
MOTION
Frames: 17
Frame Time:   0.008333
 -2.385414   0.914863   5.746732  -5.661252  -6.600756   0.981306  10.962078  -0.686710  -0.473816  -1.670846   0.440530   2.280995  -1.047708   0.998357   0.694003   4.145181   2.311541   8.112504  10.636353  12.501714  47.344845  -0.018222  20.301319  -0.001752  12.747493   1.593456 -40.235536   3.033141  -4.491753  -4.144337   8.915984 -15.889338 -49.616276  -0.001914 -21.960392   0.006687  11.794949  -3.637624  37.744470 -18.598509  -0.605101  -4.650603  58.226919  -0.000405  -0.000505  -5.506780  -7.355575   5.317735  -4.810867  -0.002819  -0.002700   2.085122  -5.209284  -2.773105  11.976423  -0.000720  -0.001923  -9.610516   4.448020   8.896159   1.107074   0.000880  -0.000129
 -2.386588   0.915081   5.753763  -5.652914  -6.479701   0.776860  11.014937  -0.901390  -0.333550  -1.690824   0.340719   2.368242  -1.002856   1.127367   0.607781   4.295459   2.076376   8.086462  11.042315  12.263268  47.603853  -0.017468  19.444254  -0.003006  12.739364   1.648386 -40.087712   2.939776  -4.659865  -4.123205   8.564956 -16.194487 -49.576743  -0.002112 -22.627333   0.007333  11.695071  -3.587497  37.783617 -18.965929  -0.685892  -4.500290  55.695587  -0.001630  -0.001251  -5.746672  -7.423738   5.308846  -4.667931  -0.002724  -0.001847   2.712874  -5.207146  -2.476748  11.747008  -0.000568  -0.001833  -9.947063   4.308956   8.630956   1.036945   0.000559  -0.000098
 -2.387793   0.915105   5.760783  -5.610922  -6.414344   0.628588  11.041499  -1.097037  -0.257521  -1.729829   0.243414   2.428951  -0.963538   1.252346   0.522341   4.457444   1.836760   8.053442  11.440818  12.024482  47.850976  -0.016374  18.631843  -0.004166  12.688302   1.648559 -39.942075   2.835742  -4.818407  -4.076580   8.223381 -16.488560 -49.529335  -0.002305 -23.268219   0.007750  11.659846  -3.628706  37.883386 -19.314543  -0.723624  -4.421220  52.979024  -0.002763  -0.000974  -5.982211  -7.485980   5.299223  -4.513621  -0.002692  -0.001172   3.287133  -5.175975  -2.240192  11.554743  -0.000444  -0.001662 -10.307440   4.199880   8.373235   0.971114   0.000314  -0.000074
 -2.389046   0.914976   5.767800  -5.565551  -6.386565   0.515977  11.065738  -1.293546  -0.216785  -1.771438   0.138547   2.465163  -0.928218   1.369693   0.438575   4.616651   1.603250   8.016561  11.821294  11.794475  48.079126  -0.015059  17.868937  -0.005258  12.618014   1.622598 -39.803818   2.728365  -4.973288  -4.021854   7.897795 -16.766458 -49.474991  -0.002351 -23.869798   0.008099  11.643261  -3.691311  38.010972 -19.672794  -0.742600  -4.387418  50.341770  -0.003474  -0.000047  -6.205574  -7.544299   5.289709  -4.368363  -0.002622  -0.000696   3.845716  -5.128384  -2.043427  11.388732  -0.000341  -0.001465 -10.687423   4.113690   8.124688   0.909757   0.000132  -0.000056
 -2.390370   0.914730   5.774833  -5.523198  -6.379967   0.420778  11.088645  -1.494948  -0.192797  -1.811094   0.024152   2.485857  -0.895140   1.478927   0.358107   4.770615   1.377061   7.976604  12.182560  11.574476  48.288760  -0.013663  17.153851  -0.006225  12.537412   1.581788 -39.677088   2.620969  -5.125040  -3.967647   7.588394 -17.029774 -49.420498  -0.002240 -24.433660   0.008369  11.592733  -3.706602  38.136095 -20.040570  -0.753272  -4.373669  47.849548  -0.003893   0.000984  -6.415402  -7.598910   5.280637  -4.236762  -0.002502  -0.000365   4.401145  -5.073414  -1.865207  11.240499  -0.000255  -0.001274 -11.083308   4.042945   7.885939   0.853075   0.000001  -0.000042
 -2.391778   0.914390   5.781887  -5.482902  -6.383611   0.334052  11.108281  -1.700225  -0.177220  -1.849031  -0.098400   2.496844  -0.864227   1.580379   0.281974   4.919201   1.158201   7.934617  12.525156  11.364543  48.482025  -0.012281  16.484027  -0.007010  12.450222   1.530869 -39.562184   2.515678  -5.272843  -3.917271   7.295120 -17.278959 -49.369352  -0.002012 -24.961078   0.008518  11.544526  -3.721531  38.259541 -20.414677  -0.759553  -4.367478  45.514644  -0.004154   0.001833  -6.611955  -7.649976   5.272086  -4.119276  -0.002341  -0.000137   4.955838  -5.016600  -1.694105  11.103963  -0.000181  -0.001101 -11.491665   3.982461   7.657454   0.801110  -0.000088  -0.000032
 -2.393273   0.913968   5.788961  -5.442132  -6.390386   0.252032  11.123169  -1.907174  -0.166507  -1.886404  -0.226898   2.501265  -0.835585   1.674593   0.210472   5.062198   0.947105   7.891775  12.849555  11.164805  48.661037  -0.010965  15.856921  -0.007581  12.358844   1.472817 -39.457866   2.413433  -5.416318  -3.871852   7.017394 -17.515122 -49.323091  -0.001710 -25.454849   0.008535  11.498678  -3.736400  38.377798 -20.791729  -0.762849  -4.363831  43.333686  -0.004337   0.002399  -6.795887  -7.697693   5.264052  -4.015014  -0.002154   0.000022   5.508725  -4.961232  -1.524626  10.975264  -0.000118  -0.000951 -11.909692   3.928659   7.439287   0.753743  -0.000146  -0.000024
 -2.394863   0.913506   5.796161  -5.369569  -6.341514   0.118310  11.043708  -2.096711  -0.086436  -1.867079  -0.335301   2.515420  -0.829319   1.777250   0.086852   5.198648   0.693763   7.825351  13.102240  10.818495  48.865274  -0.009803  15.152426  -0.009112  12.314465   1.509705 -39.399287   2.326540  -5.536445  -3.828381   6.645823 -17.707680 -49.297094  -0.002053 -26.206176   0.008217  11.399796  -3.708283  38.422124 -20.927440  -0.663661  -4.283892  40.499805  -0.007338  -0.001197  -6.861828  -7.604180   5.254800  -3.841159  -0.002150   0.000762   5.981317  -4.901638  -1.281110  10.963659  -0.000090  -0.000772 -12.379724   3.826310   7.150274   0.695674  -0.000235  -0.000017
 -2.396491   0.912907   5.803388  -5.279811  -6.308291   0.015146  10.949494  -2.274806  -0.031597  -1.860609  -0.445100   2.518558  -0.824018   1.876664  -0.031843   5.345154   0.437613   7.748077  13.357167  10.476833  49.051327  -0.008687  14.482720  -0.010175  12.225665   1.491482 -39.351479   2.226871  -5.653831  -3.772632   6.281964 -17.898275 -49.268121  -0.002418 -26.924555   0.007823  11.353871  -3.754810  38.520004 -21.053381  -0.540383  -4.238963  37.700130  -0.009675  -0.004161  -6.928268  -7.514653   5.245411  -3.665359  -0.002116   0.001352   6.427561  -4.837329  -1.069177  10.971243  -0.000074  -0.000611 -12.864625   3.735085   6.870669   0.640505  -0.000295  -0.000011
 -2.398173   0.912199   5.810639  -5.185001  -6.290829  -0.069373  10.854333  -2.452031   0.009604  -1.861817  -0.559917   2.512887  -0.820129   1.970203  -0.143890   5.490031   0.188726   7.665917  13.604540  10.149445  49.219276  -0.007647  13.852656  -0.010885  12.118129   1.446164 -39.311885   2.124231  -5.769671  -3.713009   5.935136 -18.080178 -49.234718  -0.002642 -27.598816   0.007513  11.327071  -3.822100  38.642370 -21.191102  -0.416501  -4.215682  35.054606  -0.010984  -0.006096  -6.991865  -7.431188   5.236157  -3.505416  -0.002023   0.001710   6.869314  -4.769617  -0.876503  10.982169  -0.000062  -0.000480 -13.357833   3.656696   6.602317   0.588745  -0.000331  -0.000007
 -2.399923   0.911399   5.817911  -5.085968  -6.283642  -0.144450  10.759618  -2.630165   0.044806  -1.868361  -0.679352   2.503031  -0.817175   2.057432  -0.249022   5.629644  -0.050147   7.582373  13.841100   9.838820  49.372021  -0.006716  13.261888  -0.011288  12.002740   1.387723 -39.281106   2.022107  -5.883507  -3.653692   5.606384 -18.253363 -49.200453  -0.002703 -28.230548   0.007273  11.270934  -3.848275  38.764606 -21.341265  -0.297679  -4.201354  32.579960  -0.011501  -0.007281  -7.051841  -7.353402   5.227264  -3.361938  -0.001890   0.001893   7.310341  -4.701005  -0.691901  10.991275  -0.000052  -0.000378 -13.856470   3.588985   6.345680   0.540705  -0.000347  -0.000005
 -2.401744   0.910518   5.825197  -4.980901  -6.281732  -0.213719  10.665441  -2.808068   0.076890  -1.879516  -0.801630   2.491637  -0.815155   2.138561  -0.347289   5.762803  -0.278094   7.500056  14.065746   9.545631  49.512476  -0.005907  12.708896  -0.011413  11.884788   1.323013 -39.258026   1.922351  -5.994492  -3.596512   5.295735 -18.417541 -49.167253  -0.002623 -28.821205   0.007057  11.216853  -3.873080  38.887967 -21.501688  -0.185101  -4.190574  30.271115  -0.011485  -0.007970  -7.108193  -7.280869   5.218790  -3.233737  -0.001734   0.001954   7.749419  -4.633610  -0.510261  10.996016  -0.000043  -0.000299 -14.358227   3.529543   6.100839   0.496487  -0.000348  -0.000003
 -2.403636   0.909561   5.832486  -4.867747  -6.281357  -0.278171  10.571920  -2.984021   0.106857  -1.894872  -0.924879   2.479958  -0.813991   2.213990  -0.439023   5.888910  -0.494561   7.420836  14.278017   9.269966  49.642914  -0.005215  12.191836  -0.011295  11.767359   1.255985 -39.240832   1.825798  -6.102270  -3.542365   5.002565 -18.573318 -49.136202  -0.002437 -29.373708   0.006838  11.164912  -3.896833  39.009510 -21.669716  -0.078738  -4.181636  28.118373  -0.011130  -0.008337  -7.161074  -7.213218   5.210739  -3.119294  -0.001569   0.001934   8.184177  -4.568899  -0.329626  10.995001  -0.000034  -0.000240 -14.861189   3.476320   5.867545   0.456044  -0.000337  -0.000001
 -2.405565   0.908677   5.839954  -4.851896  -6.200177  -0.332250  10.518358  -3.156398   0.141205  -1.831629  -1.040024   2.478300  -0.825665   2.304682  -0.588250   5.977382  -0.744090   7.383886  14.436021   8.827222  49.756172  -0.004631  11.684702  -0.011660  11.684230   1.256574 -39.252959   1.726423  -6.221927  -3.481503   4.631307 -18.666946 -49.160839  -0.002769 -30.100246   0.005996  11.103249  -3.906821  39.067465 -21.647559   0.030577  -4.186553  26.108274  -0.010713  -0.010045  -7.074437  -7.059103   5.214292  -2.907838  -0.001556   0.002486   8.648748  -4.526456  -0.161467  11.128181  -0.000073  -0.000045 -15.285189   3.426346   5.564657   0.191893  -0.000779  -0.000101
 -2.407539   0.907821   5.847520  -4.836465  -6.111518  -0.370367  10.448909  -3.315082   0.176432  -1.767990  -1.153388   2.475611  -0.831755   2.392669  -0.732130   6.077644  -0.996441   7.347807  14.599752   8.398551  49.862084  -0.004200  11.202333  -0.011671  11.572143   1.222064 -39.266403   1.627044  -6.334135  -3.425807   4.275342 -18.761768 -49.191401  -0.003082 -30.790498   0.005141  11.083217  -3.972858  39.152632 -21.583944   0.134787  -4.184201  24.258908  -0.009718  -0.011348  -6.990885  -6.913868   5.217278  -2.701130  -0.001532   0.002877   9.094170  -4.487395  -0.008720  11.300089  -0.000117   0.000161 -15.655296   3.373607   5.282177  -0.188362  -0.001268  -0.000216
 -2.409560   0.906968   5.855144  -4.806291  -6.036162  -0.395231  10.365355  -3.463347   0.211997  -1.716838  -1.262479   2.473651  -0.838333   2.475780  -0.866401   6.179539  -1.241022   7.310280  14.760733   7.991817  49.961069  -0.003866  10.748327  -0.011449  11.450306   1.170927 -39.277913   1.534212  -6.437539  -3.372872   3.942198 -18.851237 -49.221715  -0.003306 -31.437257   0.004434  11.030971  -3.996545  39.237891 -21.504939   0.229493  -4.167505  22.550462  -0.008290  -0.011947  -6.912399  -6.778053   5.219601  -2.512340  -0.001493   0.003048   9.519854  -4.450597   0.132095  11.482003  -0.000162   0.000315 -15.980921   3.321326   5.020456  -0.648007  -0.001695  -0.000273
 -2.411621   0.906101   5.862802  -4.756680  -5.971294  -0.407378  10.271215  -3.605092   0.248294  -1.679214  -1.367768   2.473737  -0.846446   2.553499  -0.991356   6.278307  -1.474320   7.272141  14.915049   7.608918  50.053346  -0.003603  10.322987  -0.011044  11.326823   1.113881 -39.290785   1.448182  -6.532844  -3.321090   3.631690 -18.933897 -49.249805  -0.003437 -32.040701   0.003881  10.980837  -4.019549  39.326773 -21.417518   0.314105  -4.138494  20.968064  -0.006675  -0.012019  -6.838934  -6.651163   5.221416  -2.340710  -0.001443   0.003061   9.924413  -4.408908   0.261126  11.665557  -0.000200   0.000433 -16.270433   3.277695   4.776654  -1.165848  -0.002031  -0.000348
